# xmcd CD database file
#
# Track frame offsets:
#	150
#	17776
#	39071
#	59351
#	85097
#	109550
#	128563
#	153438
#	175821
#	199040
#	217934
#
# Disc length: 3184 seconds
#
# Revision: 1
# Processed by: cddbd v1.5.2PL0 Copyright (c) Steve Scherf et al.
# Submitted via: CDex 1.51
#
DISCID=7f0c6e0b
DTITLE=The Manhattan Transfer - Vibrate
DYEAR=2004
DGENRE=Jazz
TTITLE0=Walkin' in N.Y.
TTITLE1=Greek Song
TTITLE2=Vibrate
TTITLE3=The New JuJu Man (Tutu)
TTITLE4=Doodlin'
TTITLE5=The Twelfth
TTITLE6=First Ascent
TTITLE7=Core of Sound (Modinha)
TTITLE8=Feel Flows
TTITLE9=Embraceable You
TTITLE10=Come Softly to Me - I Met Him on a Sunday
EXTD=YEAR: 2004
EXTT0=
EXTT1=
EXTT2=
EXTT3=
EXTT4=
EXTT5=
EXTT6=
EXTT7=
EXTT8=
EXTT9=
EXTT10=
PLAYORDER=
